<?xml version="1.0" encoding="UTF-8" standalone="no"?>
<svg width="33px" height="42px" viewBox="0 0 33 42" version="1.1" xmlns="http://www.w3.org/2000/svg" xmlns:xlink="http://www.w3.org/1999/xlink">
    <!-- Generator: Sketch 40.1 (33804) - http://www.bohemiancoding.com/sketch -->
    <title>Pin</title>
    <desc>Created with Sketch.</desc>
    <defs>
        <filter x="-50%" y="-50%" width="200%" height="200%" filterUnits="objectBoundingBox" id="filter-1">
            <feOffset dx="0" dy="2" in="SourceAlpha" result="shadowOffsetOuter1"></feOffset>
            <feGaussianBlur stdDeviation="2" in="shadowOffsetOuter1" result="shadowBlurOuter1"></feGaussianBlur>
            <feColorMatrix values="0 0 0 0 0   0 0 0 0 0   0 0 0 0 0  0 0 0 0.0780400815 0" type="matrix" in="shadowBlurOuter1" result="shadowMatrixOuter1"></feColorMatrix>
            <feMerge>
                <feMergeNode in="shadowMatrixOuter1"></feMergeNode>
                <feMergeNode in="SourceGraphic"></feMergeNode>
            </feMerge>
        </filter>
        <linearGradient x1="0%" y1="0%" x2="100%" y2="100%" id="linearGradient-2">
            <stop stop-color="#387ef5" offset="0%"></stop>
            <stop stop-color="#387ef5" offset="100%"></stop>
        </linearGradient>
    </defs>
    <g id="Refill-Design" stroke="none" stroke-width="1" fill="none" fill-rule="evenodd">
        <g id="Main-Mapping" transform="translate(-140.000000, -70.000000)">
            <g id="Pin" transform="translate(144.000000, 72.000000)">
                <g filter="url(#filter-1)">
                    <ellipse id="Oval-6" fill-opacity="0.296365489" fill="#42495E" cx="12.5" cy="32" rx="4.5" ry="2"></ellipse>
                    <path d="M2.63402457,20.176378 C2.5698021,20.1020786 2.53869629,20.06635 2.53869629,20.06635 C2.53869629,20.06635 2.5422268,20.0663177 2.54919385,20.0662543 C0.94967683,17.9658695 0,15.3438392 0,12.5 C0,5.59644063 5.59644063,0 12.5,0 C19.4035594,0 25,5.59644063 25,12.5 C25,15.3394373 24.0532608,17.9577518 22.4582289,20.0564972 C22.4688647,20.0596575 22.4728032,20.0629406 22.4697876,20.06635 C22.4174317,20.1255445 22.3651075,20.1848028 22.31282,20.2441173 C22.0548335,20.5705743 21.7809037,20.8838511 21.4922057,21.1827723 C16.8074091,26.5843032 12.6301456,32.1108318 12.5373858,31.9985437 C7.57093797,25.986529 4.70924326,22.6033111 3.40443163,21.0744668 C3.13387037,20.7875677 2.8767333,20.4878701 2.63402457,20.176378 Z" id="Combined-Shape" fill="url(#linearGradient-2)"></path>
                    <path d="M12.8343762,5 C12.8343762,5 16.3571045,10.6400353 16.7429878,11.4216112 C17.1288711,12.2031871 17.9095197,14.3993593 16.5736423,16.7569221 C15.2377648,19.114485 13.7815398,18.9474332 13.0171425,18.9474332 C12.2527451,18.9474332 8.38281637,18.8004 8.01095723,14.5784165 C7.83697545,12.6030767 9.78615699,10.3921173 10.218354,9.72210449 C10.6505511,9.05209165 12.5574206,5.50300986 12.5574206,5.50300986 L12.8343762,5 Z" id="Path-3" fill="#FFFFF9"></path>
                </g>
            </g>
        </g>
    </g>
</svg>
